<svg width="32" height="32" viewBox="0 0 32 32" fill="none" xmlns="http://www.w3.org/2000/svg">
<g clip-path="url(#clip0_2645_292)">
<g clip-path="url(#clip1_2645_292)">
<g clip-path="url(#clip2_2645_292)">
<path d="M6.61288 25.5456H28.4103C28.477 25.5456 28.5417 25.5361 28.6038 25.5213C28.6088 25.5213 28.6129 25.5221 28.6178 25.5221C29.0832 25.5221 29.4612 25.1445 29.4612 24.6788V0.843336C29.4613 0.377812 29.0832 0 28.6178 0H28.412H7.96166H6.61407C4.36935 0 2.54348 1.82629 2.54348 4.07037C2.54348 4.10047 2.54941 4.12904 2.55233 4.15809C2.54941 6.23107 2.5237 25.2792 2.54941 27.7833C2.5478 27.8322 2.54181 27.88 2.54181 27.9295C2.54181 30.0873 4.23141 31.8538 6.35664 31.9873C6.39928 31.9939 6.44108 32.0001 6.48532 32.0001H28.6178C29.0831 32.0001 29.4611 31.6225 29.4611 31.1567V27.9823C29.4611 27.5169 29.083 27.139 28.6178 27.139C28.1525 27.139 27.7744 27.517 27.7744 27.9823V30.3135H6.61288C5.33133 30.3135 4.28519 29.296 4.23378 28.0272C4.23503 28.0045 4.23914 27.9831 4.23872 27.9601C4.23789 27.923 4.23663 27.8654 4.2358 27.7888C4.30951 26.54 5.34596 25.5456 6.61288 25.5456ZM7.18793 4.07037C7.18793 3.60485 7.56574 3.22704 8.03126 3.22704C8.49679 3.22704 8.8746 3.60485 8.8746 4.07037V21.2008C8.8746 21.6661 8.49679 22.0441 8.03126 22.0441C7.56574 22.0441 7.18793 21.666 7.18793 21.2008V4.07037Z" fill="white"/>
</g>
</g>
</g>
<defs>
<clipPath id="clip0_2645_292">
<rect width="32" height="32" fill="white"/>
</clipPath>
<clipPath id="clip1_2645_292">
<rect width="32" height="32" fill="white"/>
</clipPath>
<clipPath id="clip2_2645_292">
<rect width="26.9231" height="32.0001" fill="white" transform="translate(2.53809)"/>
</clipPath>
</defs>
</svg>
