<svg width="32" height="32" viewBox="0 0 32 32" fill="none" xmlns="http://www.w3.org/2000/svg">
<g clip-path="url(#clip0_2645_277)">
<g clip-path="url(#clip1_2645_277)">
<g clip-path="url(#clip2_2645_277)">
<path d="M32 21.8742C32 20.6536 31.2139 19.6227 30.125 19.2344V9.52228L32 8.74922L16 2.32959L0 8.74922L16 15.1689L28.25 10.2752V19.2344C27.1611 19.6227 26.375 20.6536 26.375 21.8742C26.375 22.9917 27.035 23.951 27.9813 24.4043L26.4236 29.0776L28.2015 29.6708L29.1875 26.7128L30.1735 29.6708L31.9514 29.0776L30.3937 24.4043C31.34 23.951 32 22.9918 32 21.8742Z" fill="white"/>
</g>
</g>
<g clip-path="url(#clip3_2645_277)">
<g clip-path="url(#clip4_2645_277)">
<path d="M16 17.1893L7.5625 13.8013V16.249C7.5625 18.9215 11.1898 20.9365 16 20.9365C20.8102 20.9365 24.4375 18.9215 24.4375 16.249V13.8013L16 17.1893Z" fill="white"/>
</g>
</g>
</g>
<defs>
<clipPath id="clip0_2645_277">
<rect width="32" height="32" fill="white"/>
</clipPath>
<clipPath id="clip1_2645_277">
<rect width="32" height="27.3413" fill="white" transform="translate(0 2.32959)"/>
</clipPath>
<clipPath id="clip2_2645_277">
<rect width="32" height="27.3413" fill="white" transform="translate(0 2.32959)"/>
</clipPath>
<clipPath id="clip3_2645_277">
<rect width="16.875" height="7.13525" fill="white" transform="translate(7.5625 13.8013)"/>
</clipPath>
<clipPath id="clip4_2645_277">
<rect width="16.875" height="7.13525" fill="white" transform="translate(7.5625 13.8013)"/>
</clipPath>
</defs>
</svg>
